<mxfile>
    <diagram id="Hhe48FeysqysJuCXTS_Y" name="ページ1">
        <mxGraphModel dx="751" dy="431" grid="1" gridSize="10" guides="1" tooltips="1" connect="1" arrows="1" fold="1" page="1" pageScale="1" pageWidth="827" pageHeight="1169" math="0" shadow="0">
            <root>
                <mxCell id="0"/>
                <mxCell id="1" parent="0"/>
                <mxCell id="2" value="Card" style="swimlane;fontStyle=1;align=center;verticalAlign=top;childLayout=stackLayout;horizontal=1;startSize=26;horizontalStack=0;resizeParent=1;resizeParentMax=0;resizeLast=0;collapsible=1;marginBottom=0;fontFamily=Lucida Console;whiteSpace=wrap;" parent="1" vertex="1">
                    <mxGeometry x="100" y="120" width="220" height="170" as="geometry"/>
                </mxCell>
                <mxCell id="3" value="- suit: string&#10;- rank: string" style="text;strokeColor=none;fillColor=none;align=left;verticalAlign=top;spacingLeft=4;spacingRight=4;overflow=hidden;rotatable=0;points=[[0,0.5],[1,0.5]];portConstraint=eastwest;fontFamily=Lucida Console;whiteSpace=wrap;" parent="2" vertex="1">
                    <mxGeometry y="26" width="220" height="54" as="geometry"/>
                </mxCell>
                <mxCell id="4" value="" style="line;strokeWidth=1;fillColor=none;align=left;verticalAlign=middle;spacingTop=-1;spacingLeft=3;spacingRight=3;rotatable=0;labelPosition=right;points=[];portConstraint=eastwest;" parent="2" vertex="1">
                    <mxGeometry y="80" width="220" height="8" as="geometry"/>
                </mxCell>
                <mxCell id="5" value="+ Card(&#10;suit: string,&#10;rank: string): void&#10;&#10;+ getRankNumber(): Number" style="text;strokeColor=none;fillColor=none;align=left;verticalAlign=top;spacingLeft=4;spacingRight=4;overflow=hidden;rotatable=0;points=[[0,0.5],[1,0.5]];portConstraint=eastwest;fontFamily=Lucida Console;whiteSpace=wrap;" parent="2" vertex="1">
                    <mxGeometry y="88" width="220" height="82" as="geometry"/>
                </mxCell>
                <mxCell id="6" value="Deck" style="swimlane;fontStyle=1;align=center;verticalAlign=top;childLayout=stackLayout;horizontal=1;startSize=26;horizontalStack=0;resizeParent=1;resizeParentMax=0;resizeLast=0;collapsible=1;marginBottom=0;fontFamily=Lucida Console;whiteSpace=wrap;" vertex="1" parent="1">
                    <mxGeometry x="480" y="80" width="170" height="220" as="geometry"/>
                </mxCell>
                <mxCell id="7" value="- gameType: string&#10;- cards: Card[]" style="text;strokeColor=none;fillColor=none;align=left;verticalAlign=top;spacingLeft=4;spacingRight=4;overflow=hidden;rotatable=0;points=[[0,0.5],[1,0.5]];portConstraint=eastwest;fontFamily=Lucida Console;whiteSpace=wrap;" vertex="1" parent="6">
                    <mxGeometry y="26" width="170" height="54" as="geometry"/>
                </mxCell>
                <mxCell id="8" value="" style="line;strokeWidth=1;fillColor=none;align=left;verticalAlign=middle;spacingTop=-1;spacingLeft=3;spacingRight=3;rotatable=0;labelPosition=right;points=[];portConstraint=eastwest;" vertex="1" parent="6">
                    <mxGeometry y="80" width="170" height="8" as="geometry"/>
                </mxCell>
                <mxCell id="9" value="+ Deck(&#10;gameType: string&#10;): void&#10;&#10;+ shuffle(): void&#10;+ reListDeck(): void&#10;+ drawOne(): Card" style="text;strokeColor=none;fillColor=none;align=left;verticalAlign=top;spacingLeft=4;spacingRight=4;overflow=hidden;rotatable=0;points=[[0,0.5],[1,0.5]];portConstraint=eastwest;fontFamily=Lucida Console;whiteSpace=wrap;" vertex="1" parent="6">
                    <mxGeometry y="88" width="170" height="132" as="geometry"/>
                </mxCell>
                <mxCell id="10" value="Relation" style="endArrow=open;html=1;endSize=12;startArrow=diamondThin;startSize=14;startFill=0;edgeStyle=orthogonalEdgeStyle;exitX=1;exitY=-0.043;exitDx=0;exitDy=0;exitPerimeter=0;entryX=-0.007;entryY=0.009;entryDx=0;entryDy=0;entryPerimeter=0;" edge="1" parent="1" source="5" target="9">
                    <mxGeometry relative="1" as="geometry">
                        <mxPoint x="334" y="204.5" as="sourcePoint"/>
                        <mxPoint x="494" y="204.5" as="targetPoint"/>
                    </mxGeometry>
                </mxCell>
                <mxCell id="11" value="0..52" style="edgeLabel;resizable=0;html=1;align=left;verticalAlign=top;" connectable="0" vertex="1" parent="10">
                    <mxGeometry x="-1" relative="1" as="geometry"/>
                </mxCell>
                <mxCell id="12" value="1" style="edgeLabel;resizable=0;html=1;align=right;verticalAlign=top;" connectable="0" vertex="1" parent="10">
                    <mxGeometry x="1" relative="1" as="geometry"/>
                </mxCell>
                <mxCell id="13" value="Player" style="swimlane;fontStyle=1;align=center;verticalAlign=top;childLayout=stackLayout;horizontal=1;startSize=26;horizontalStack=0;resizeParent=1;resizeParentMax=0;resizeLast=0;collapsible=1;marginBottom=0;fontFamily=Lucida Console;whiteSpace=wrap;" vertex="1" parent="1">
                    <mxGeometry x="480" y="350" width="240" height="370" as="geometry"/>
                </mxCell>
                <mxCell id="14" value="- name: string&#10;- type: string&#10;- gameType: string&#10;- hand: Card[]&#10;- chips: Number&#10;- bet: Number&#10;- winAmount: Number&#10;- gameStatus: string" style="text;strokeColor=none;fillColor=none;align=left;verticalAlign=top;spacingLeft=4;spacingRight=4;overflow=hidden;rotatable=0;points=[[0,0.5],[1,0.5]];portConstraint=eastwest;fontFamily=Lucida Console;whiteSpace=wrap;" vertex="1" parent="13">
                    <mxGeometry y="26" width="240" height="144" as="geometry"/>
                </mxCell>
                <mxCell id="15" value="" style="line;strokeWidth=1;fillColor=none;align=left;verticalAlign=middle;spacingTop=-1;spacingLeft=3;spacingRight=3;rotatable=0;labelPosition=right;points=[];portConstraint=eastwest;" vertex="1" parent="13">
                    <mxGeometry y="170" width="240" height="8" as="geometry"/>
                </mxCell>
                <mxCell id="16" value="+ Player(&#10;name: string,&#10;type: string,&#10;gameType: string,&#10;chips: Number&#10;): void&#10;&#10;+ promptPlayer(&#10;userData: string&#10;): GameDecision&#10;&#10;+ getHandScore(): Number" style="text;strokeColor=none;fillColor=none;align=left;verticalAlign=top;spacingLeft=4;spacingRight=4;overflow=hidden;rotatable=0;points=[[0,0.5],[1,0.5]];portConstraint=eastwest;fontFamily=Lucida Console;whiteSpace=wrap;" vertex="1" parent="13">
                    <mxGeometry y="178" width="240" height="192" as="geometry"/>
                </mxCell>
                <mxCell id="17" value="GameDecision" style="swimlane;fontStyle=1;align=center;verticalAlign=top;childLayout=stackLayout;horizontal=1;startSize=26;horizontalStack=0;resizeParent=1;resizeParentMax=0;resizeLast=0;collapsible=1;marginBottom=0;fontFamily=Lucida Console;whiteSpace=wrap;" vertex="1" parent="1">
                    <mxGeometry x="880" y="610" width="170" height="170" as="geometry"/>
                </mxCell>
                <mxCell id="18" value="- action: string&#10;- amount: Number" style="text;strokeColor=none;fillColor=none;align=left;verticalAlign=top;spacingLeft=4;spacingRight=4;overflow=hidden;rotatable=0;points=[[0,0.5],[1,0.5]];portConstraint=eastwest;fontFamily=Lucida Console;whiteSpace=wrap;" vertex="1" parent="17">
                    <mxGeometry y="26" width="170" height="54" as="geometry"/>
                </mxCell>
                <mxCell id="19" value="" style="line;strokeWidth=1;fillColor=none;align=left;verticalAlign=middle;spacingTop=-1;spacingLeft=3;spacingRight=3;rotatable=0;labelPosition=right;points=[];portConstraint=eastwest;" vertex="1" parent="17">
                    <mxGeometry y="80" width="170" height="8" as="geometry"/>
                </mxCell>
                <mxCell id="20" value="+ GameDecision(&#10;action: string,&#10;amount: Number&#10;): void&#10;" style="text;strokeColor=none;fillColor=none;align=left;verticalAlign=top;spacingLeft=4;spacingRight=4;overflow=hidden;rotatable=0;points=[[0,0.5],[1,0.5]];portConstraint=eastwest;fontFamily=Lucida Console;whiteSpace=wrap;" vertex="1" parent="17">
                    <mxGeometry y="88" width="170" height="82" as="geometry"/>
                </mxCell>
                <mxCell id="21" value="Relation" style="endArrow=open;html=1;endSize=12;startArrow=diamondThin;startSize=14;startFill=0;edgeStyle=orthogonalEdgeStyle;entryX=-0.008;entryY=0.592;entryDx=0;entryDy=0;entryPerimeter=0;" edge="1" parent="1" source="5" target="14">
                    <mxGeometry relative="1" as="geometry">
                        <mxPoint x="320" y="255.28400000000005" as="sourcePoint"/>
                        <mxPoint x="478.80999999999995" y="219.998" as="targetPoint"/>
                    </mxGeometry>
                </mxCell>
                <mxCell id="22" value="2..n" style="edgeLabel;resizable=0;html=1;align=left;verticalAlign=top;" connectable="0" vertex="1" parent="21">
                    <mxGeometry x="-1" relative="1" as="geometry"/>
                </mxCell>
                <mxCell id="23" value="1..n" style="edgeLabel;resizable=0;html=1;align=right;verticalAlign=top;" connectable="0" vertex="1" parent="21">
                    <mxGeometry x="1" relative="1" as="geometry"/>
                </mxCell>
                <mxCell id="24" value="1..n" style="endArrow=open;html=1;endSize=12;startArrow=diamondThin;startSize=14;startFill=1;edgeStyle=orthogonalEdgeStyle;align=left;verticalAlign=bottom;exitX=1.012;exitY=0.167;exitDx=0;exitDy=0;exitPerimeter=0;entryX=0.005;entryY=0.696;entryDx=0;entryDy=0;entryPerimeter=0;" edge="1" parent="1" source="16" target="18">
                    <mxGeometry x="-0.7837" y="-24" relative="1" as="geometry">
                        <mxPoint x="750" y="492.5" as="sourcePoint"/>
                        <mxPoint x="910" y="492.5" as="targetPoint"/>
                        <mxPoint as="offset"/>
                    </mxGeometry>
                </mxCell>
                <mxCell id="26" value="Table" style="swimlane;fontStyle=1;align=center;verticalAlign=top;childLayout=stackLayout;horizontal=1;startSize=26;horizontalStack=0;resizeParent=1;resizeParentMax=0;resizeLast=0;collapsible=1;marginBottom=0;fontFamily=Lucida Console;whiteSpace=wrap;" vertex="1" parent="1">
                    <mxGeometry x="1220" y="170" width="420" height="400" as="geometry"/>
                </mxCell>
                <mxCell id="27" value="- gameType: string&#10;- betDenominations: Number[]&#10;- deck: Deck&#10;- players: Player[]&#10;- house: Player&#10;- gamePhase: string&#10;- resultLog: string&#10;- turnCounter: Number" style="text;strokeColor=none;fillColor=none;align=left;verticalAlign=top;spacingLeft=4;spacingRight=4;overflow=hidden;rotatable=0;points=[[0,0.5],[1,0.5]];portConstraint=eastwest;fontFamily=Lucida Console;whiteSpace=wrap;" vertex="1" parent="26">
                    <mxGeometry y="26" width="420" height="134" as="geometry"/>
                </mxCell>
                <mxCell id="28" value="" style="line;strokeWidth=1;fillColor=none;align=left;verticalAlign=middle;spacingTop=-1;spacingLeft=3;spacingRight=3;rotatable=0;labelPosition=right;points=[];portConstraint=eastwest;" vertex="1" parent="26">
                    <mxGeometry y="160" width="420" height="8" as="geometry"/>
                </mxCell>
                <mxCell id="29" value="+ Table(&#10;gameType: string,&#10;betDenominations: Number[]&#10;): void&#10;&#10;+ evaluateMove(player: Player): void&#10;+ blackjackEvaluateAndGetRoundResults(): void&#10;+ blackjackAssignPlayerHands(): void&#10;+ blackjackClearPlayerHandsAndBets(): void&#10;+ getTurnPlayer(): Player&#10;+ haveTurn(userDate: string): void&#10;+ onFirstPlayer(): boolean&#10;+ onLastPlayer(): boolean&#10;+ allPlayerActionsResolved(): boolean" style="text;strokeColor=none;fillColor=none;align=left;verticalAlign=top;spacingLeft=4;spacingRight=4;overflow=hidden;rotatable=0;points=[[0,0.5],[1,0.5]];portConstraint=eastwest;fontFamily=Lucida Console;whiteSpace=wrap;" vertex="1" parent="26">
                    <mxGeometry y="168" width="420" height="232" as="geometry"/>
                </mxCell>
                <mxCell id="30" value="Relation" style="endArrow=open;html=1;endSize=12;startArrow=diamondThin;startSize=14;startFill=0;edgeStyle=orthogonalEdgeStyle;exitX=1.013;exitY=0.775;exitDx=0;exitDy=0;exitPerimeter=0;" edge="1" parent="1" source="7" target="27">
                    <mxGeometry relative="1" as="geometry">
                        <mxPoint x="790" y="195.28399999999993" as="sourcePoint"/>
                        <mxPoint x="948.81" y="159.998" as="targetPoint"/>
                    </mxGeometry>
                </mxCell>
                <mxCell id="31" value="1" style="edgeLabel;resizable=0;html=1;align=left;verticalAlign=top;" connectable="0" vertex="1" parent="30">
                    <mxGeometry x="-1" relative="1" as="geometry"/>
                </mxCell>
                <mxCell id="32" value="1" style="edgeLabel;resizable=0;html=1;align=right;verticalAlign=top;" connectable="0" vertex="1" parent="30">
                    <mxGeometry x="1" relative="1" as="geometry"/>
                </mxCell>
                <mxCell id="33" value="Relation" style="endArrow=open;html=1;endSize=12;startArrow=diamondThin;startSize=14;startFill=0;edgeStyle=orthogonalEdgeStyle;exitX=1;exitY=0.5;exitDx=0;exitDy=0;entryX=0.004;entryY=0.182;entryDx=0;entryDy=0;entryPerimeter=0;" edge="1" parent="1" source="14" target="29">
                    <mxGeometry relative="1" as="geometry">
                        <mxPoint x="662.21" y="157.85000000000002" as="sourcePoint"/>
                        <mxPoint x="1230" y="273" as="targetPoint"/>
                    </mxGeometry>
                </mxCell>
                <mxCell id="34" value="1" style="edgeLabel;resizable=0;html=1;align=left;verticalAlign=top;" connectable="0" vertex="1" parent="33">
                    <mxGeometry x="-1" relative="1" as="geometry"/>
                </mxCell>
                <mxCell id="35" value="1" style="edgeLabel;resizable=0;html=1;align=right;verticalAlign=top;" connectable="0" vertex="1" parent="33">
                    <mxGeometry x="1" relative="1" as="geometry"/>
                </mxCell>
            </root>
        </mxGraphModel>
    </diagram>
</mxfile>